<svg t="1629960605221" class="icon" viewBox="0 0 1024 1024" version="1.1" xmlns="http://www.w3.org/2000/svg"
    p-id="5339">
    <path
        d="M512 1016.869c-278.378 0-504.869-226.493-504.869-504.869s226.493-504.869 504.869-504.869c278.3 0 504.793 226.493 504.793 504.869s-226.493 504.869-504.793 504.869zM512 84.724c-235.581 0-427.198 191.618-427.198 427.198 0 235.503 191.618 427.198 427.198 427.198 235.503 0 427.12-191.851 427.12-427.198 0-235.503-191.618-427.198-427.12-427.198z"
        p-id="5340" fill="#8a8a8a"></path>
    <path
        d="M749.699 345.39l-71.089-71.089-166.61 166.61-166.61-166.61-71.089 71.089 166.61 166.61-166.61 166.61 71.089 71.089 166.61-166.61 166.61 166.61 71.089-71.089-166.61-166.61z"
        p-id="5341" fill="#8a8a8a"></path>
</svg>